# xmcd
#
# Track frame offsets: 
#        150
#        21578
#        36627
#        51631
#        63869
#        85038
#        101016
#        122244
#        131833
#        146171
#        160417
#
# Disc length: 2443 seconds
#
# Revision: 0
# Processed by: cddbd v1.4PL0 Copyright (c) Steve Scherf et al.
# Submitted via: ExactAudioCopy v0.90b4
#
DISCID=ab09890b
DTITLE=Mojo Stu - Good Gravy
DYEAR=2003
DGENRE=Blues
TTITLE0=Workin' With My Baby
TTITLE1=It's All Good
TTITLE2=Leave That Good Gal Here
TTITLE3=Philly Rag
TTITLE4=Woke Up With The Blues
TTITLE5=I'll Be Your Man
TTITLE6=My Baby
TTITLE7=Poor Lonely Man
TTITLE8=Bad Luck Woman
TTITLE9=Good Gravy
TTITLE10=Mudbone Waltz
EXTD=
EXTT0=
EXTT1=
EXTT2=
EXTT3=
EXTT4=
EXTT5=
EXTT6=
EXTT7=
EXTT8=
EXTT9=
EXTT10=
PLAYORDER=
